<svg width="20" height="20" viewBox="0 0 20 20" fill="none" xmlns="http://www.w3.org/2000/svg">
<path d="M18.4033 9.49617C17.7167 8.04968 16.8997 6.87 15.9521 5.95711L14.9584 6.95086C15.7687 7.72527 16.4746 8.73836 17.085 10.0001C15.46 13.3634 13.1533 14.961 10.001 14.961C9.05474 14.961 8.18319 14.8153 7.38632 14.5239L6.30956 15.6007C7.41633 16.1117 8.6468 16.3673 10.001 16.3673C13.7549 16.3673 16.5557 14.4122 18.4033 10.502C18.4776 10.3448 18.5161 10.173 18.5161 9.9991C18.5161 9.82518 18.4776 9.65342 18.4033 9.49617ZM17.1617 3.23367L16.3291 2.40007C16.3146 2.38555 16.2973 2.37402 16.2784 2.36616C16.2594 2.3583 16.2391 2.35425 16.2185 2.35425C16.198 2.35425 16.1777 2.3583 16.1587 2.36616C16.1397 2.37402 16.1225 2.38555 16.108 2.40007L13.9719 4.53523C12.7941 3.93367 11.4705 3.63289 10.001 3.63289C6.24706 3.63289 3.44628 5.58796 1.59862 9.49812C1.52436 9.65538 1.48584 9.82714 1.48584 10.0011C1.48584 10.175 1.52436 10.3467 1.59862 10.504C2.33677 12.0587 3.22545 13.3048 4.26464 14.2425L2.19784 16.3087C2.16856 16.338 2.15211 16.3777 2.15211 16.4191C2.15211 16.4605 2.16856 16.5003 2.19784 16.5296L3.03163 17.3634C3.06093 17.3926 3.10066 17.4091 3.14208 17.4091C3.1835 17.4091 3.22323 17.3926 3.25253 17.3634L17.1617 3.45476C17.1762 3.44025 17.1878 3.42302 17.1956 3.40405C17.2035 3.38508 17.2075 3.36475 17.2075 3.34421C17.2075 3.32368 17.2035 3.30335 17.1956 3.28438C17.1878 3.26541 17.1762 3.24818 17.1617 3.23367ZM2.91698 10.0001C4.54394 6.63679 6.85058 5.03914 10.001 5.03914C11.0662 5.03914 12.0348 5.22195 12.9135 5.59363L11.5404 6.96668C10.8902 6.61973 10.1456 6.49097 9.4166 6.59938C8.68759 6.7078 8.01273 7.04765 7.49158 7.56881C6.97042 8.08996 6.63057 8.76483 6.52215 9.49383C6.41373 10.2228 6.5425 10.9674 6.88944 11.6177L5.26015 13.2469C4.35839 12.4511 3.58105 11.3727 2.91698 10.0001ZM7.73534 10.0001C7.73568 9.65567 7.81726 9.3162 7.97345 9.00925C8.12964 8.70229 8.35603 8.43651 8.63423 8.23349C8.91244 8.03047 9.23461 7.89594 9.57457 7.84082C9.91454 7.78571 10.2627 7.81156 10.5908 7.91629L7.83905 10.668C7.77008 10.4521 7.73509 10.2268 7.73534 10.0001Z" fill="white"/>
<path d="M9.92287 12.1875C9.85529 12.1875 9.78869 12.1844 9.72268 12.1783L8.69104 13.21C9.31153 13.4476 9.98756 13.5004 10.6374 13.362C11.2873 13.2236 11.8831 12.8999 12.353 12.4301C12.8228 11.9603 13.1465 11.3644 13.2849 10.7146C13.4233 10.0647 13.3704 9.38868 13.1328 8.76819L12.1012 9.79983C12.1072 9.86584 12.1104 9.93245 12.1104 10C12.1105 10.2873 12.054 10.5719 11.9442 10.8373C11.8343 11.1028 11.6732 11.344 11.47 11.5472C11.2668 11.7503 11.0256 11.9114 10.7602 12.0213C10.4947 12.1312 10.2102 12.1877 9.92287 12.1875Z" fill="white"/>
</svg>
