<svg width="14" height="18" viewBox="0 0 14 18" fill="none" xmlns="http://www.w3.org/2000/svg">
<path d="M12 7.33329H4.50004V4.83329C4.50004 3.45496 5.62171 2.33329 7.00004 2.33329C8.37837 2.33329 9.50004 3.45496 9.50004 4.83329H11.1667C11.1667 2.53579 9.29754 0.666626 7.00004 0.666626C4.70254 0.666626 2.83337 2.53579 2.83337 4.83329V7.33329H2.00004C1.55801 7.33329 1.13409 7.50889 0.821529 7.82145C0.508969 8.13401 0.333374 8.55793 0.333374 8.99996V15.6666C0.333374 16.1087 0.508969 16.5326 0.821529 16.8451C1.13409 17.1577 1.55801 17.3333 2.00004 17.3333H12C12.4421 17.3333 12.866 17.1577 13.1786 16.8451C13.4911 16.5326 13.6667 16.1087 13.6667 15.6666V8.99996C13.6667 8.55793 13.4911 8.13401 13.1786 7.82145C12.866 7.50889 12.4421 7.33329 12 7.33329ZM5.38421 11.9158C5.48664 11.5237 5.72832 11.1822 6.06411 10.9552C6.39989 10.7283 6.80682 10.6313 7.20888 10.6824C7.61094 10.7336 7.98063 10.9293 8.24891 11.2331C8.51719 11.5369 8.6657 11.928 8.66671 12.3333C8.66623 12.6247 8.58895 12.9109 8.44265 13.163C8.29635 13.4151 8.0862 13.6241 7.83337 13.7691V15.6666H6.16671V13.7691C5.85139 13.5885 5.60408 13.3093 5.46272 12.9745C5.32137 12.6397 5.29379 12.2678 5.38421 11.9158Z" fill="#DADADA"/>
</svg>
